<mxfile host="app.diagrams.net" modified="2023-08-10T12:46:00.357Z" agent="Mozilla/5.0 (Windows NT 10.0; Win64; x64) AppleWebKit/537.36 (KHTML, like Gecko) Chrome/115.0.0.0 Safari/537.36" etag="5y6Mb-w7Fg4HbruNTJJI" version="21.6.7" type="github">
  <diagram name="Page-1" id="bfe91b75-5d2c-26a0-9c1d-138518896778">
    <mxGraphModel dx="1434" dy="1618" grid="1" gridSize="10" guides="1" tooltips="1" connect="1" arrows="1" fold="1" page="1" pageScale="1" pageWidth="1100" pageHeight="850" background="none" math="0" shadow="0">
      <root>
        <mxCell id="0" />
        <mxCell id="1" parent="0" />
        <mxCell id="PKebl-i5t1zI-5H9I0Oi-12" value="" style="html=1;fillColor=#CCCCCC;strokeColor=#6881B3;gradientColor=none;gradientDirection=north;strokeWidth=2;shape=mxgraph.networks.cloud;fontColor=#6881B3;rounded=0;shadow=0;comic=0;align=center;fontSize=28;textOpacity=60;" parent="1" vertex="1">
          <mxGeometry x="1450" y="-800" width="790" height="540" as="geometry" />
        </mxCell>
        <mxCell id="7c3789c024ecab99-1" value="" style="fontColor=#0066CC;verticalAlign=top;verticalLabelPosition=bottom;labelPosition=center;align=center;html=1;fillColor=#CCCCCC;strokeColor=#6881B3;gradientColor=none;gradientDirection=north;strokeWidth=2;shape=mxgraph.networks.pc;rounded=0;shadow=0;comic=0;" parent="1" vertex="1">
          <mxGeometry x="360" y="-470" width="160" height="135" as="geometry" />
        </mxCell>
        <mxCell id="7c3789c024ecab99-53" value="Internet" style="html=1;fillColor=#CCCCCC;strokeColor=#6881B3;gradientColor=none;gradientDirection=north;strokeWidth=2;shape=mxgraph.networks.cloud;fontColor=#6881B3;rounded=0;shadow=0;comic=0;align=center;fontSize=28;" parent="1" vertex="1">
          <mxGeometry x="850" y="-700" width="330" height="140" as="geometry" />
        </mxCell>
        <mxCell id="PKebl-i5t1zI-5H9I0Oi-2" value="" style="fontColor=#0066CC;verticalAlign=top;verticalLabelPosition=bottom;labelPosition=center;align=center;html=1;outlineConnect=0;fillColor=#CCCCCC;strokeColor=#6881B3;gradientColor=none;gradientDirection=north;strokeWidth=2;shape=mxgraph.networks.server;" parent="1" vertex="1">
          <mxGeometry x="1570" y="-530" width="90" height="100" as="geometry" />
        </mxCell>
        <mxCell id="PKebl-i5t1zI-5H9I0Oi-6" value="" style="endArrow=none;dashed=1;html=1;rounded=0;entryX=-0.001;entryY=0.666;entryDx=0;entryDy=0;entryPerimeter=0;exitX=1;exitY=0.5;exitDx=0;exitDy=0;exitPerimeter=0;" parent="1" source="7c3789c024ecab99-1" target="7c3789c024ecab99-53" edge="1">
          <mxGeometry width="50" height="50" relative="1" as="geometry">
            <mxPoint x="1063" y="-350" as="sourcePoint" />
            <mxPoint x="1113" y="-400" as="targetPoint" />
          </mxGeometry>
        </mxCell>
        <mxCell id="PKebl-i5t1zI-5H9I0Oi-8" value="&lt;font style=&quot;font-size: 30px;&quot;&gt;Secure VPN tunnel&lt;/font&gt;" style="text;strokeColor=none;align=center;fillColor=none;html=1;verticalAlign=middle;whiteSpace=wrap;rounded=0;fontColor=#5B7FEC;" parent="1" vertex="1">
          <mxGeometry x="560" y="-647.5" width="180" height="110" as="geometry" />
        </mxCell>
        <mxCell id="PKebl-i5t1zI-5H9I0Oi-9" value="" style="endArrow=none;dashed=1;html=1;rounded=0;exitX=0.974;exitY=0.642;exitDx=0;exitDy=0;exitPerimeter=0;" parent="1" source="7c3789c024ecab99-53" target="PKebl-i5t1zI-5H9I0Oi-2" edge="1">
          <mxGeometry width="50" height="50" relative="1" as="geometry">
            <mxPoint x="1200" y="-390" as="sourcePoint" />
            <mxPoint x="1560" y="-455" as="targetPoint" />
          </mxGeometry>
        </mxCell>
        <mxCell id="PKebl-i5t1zI-5H9I0Oi-10" value="&lt;font style=&quot;font-size: 30px;&quot;&gt;Secure VPN tunnel&lt;/font&gt;" style="text;strokeColor=none;align=center;fillColor=none;html=1;verticalAlign=middle;whiteSpace=wrap;rounded=0;fontColor=#5B7FEC;" parent="1" vertex="1">
          <mxGeometry x="1260" y="-700" width="180" height="110" as="geometry" />
        </mxCell>
        <mxCell id="PKebl-i5t1zI-5H9I0Oi-14" value="&lt;font style=&quot;font-size: 20px;&quot;&gt;OpenVPN ServerP&lt;br style=&quot;border-color: var(--border-color); font-family: Verdana;&quot;&gt;&lt;span style=&quot;font-family: Verdana;&quot;&gt;Public IP 158.160.104.149&lt;/span&gt;&lt;br style=&quot;border-color: var(--border-color); font-family: Verdana;&quot;&gt;&lt;span style=&quot;font-family: Verdana;&quot;&gt;LAN IP 10.128.0.11&lt;/span&gt;&lt;/font&gt;" style="text;strokeColor=none;align=center;fillColor=none;html=1;verticalAlign=middle;whiteSpace=wrap;rounded=0;fontColor=#5B7FEC;" parent="1" vertex="1">
          <mxGeometry x="1380" y="-430" width="450" height="117.5" as="geometry" />
        </mxCell>
        <mxCell id="PKebl-i5t1zI-5H9I0Oi-15" value="" style="fontColor=#0066CC;verticalAlign=top;verticalLabelPosition=bottom;labelPosition=center;align=center;html=1;outlineConnect=0;fillColor=#CCCCCC;strokeColor=#6881B3;gradientColor=none;gradientDirection=north;strokeWidth=2;shape=mxgraph.networks.server;" parent="1" vertex="1">
          <mxGeometry x="1930" y="-647.5" width="90" height="100" as="geometry" />
        </mxCell>
        <mxCell id="PKebl-i5t1zI-5H9I0Oi-16" value="&lt;font style=&quot;font-size: 20px;&quot;&gt;EasyRSA Server&lt;br style=&quot;border-color: var(--border-color); font-family: Verdana;&quot;&gt;&lt;span style=&quot;font-family: Verdana;&quot;&gt;Public IP 158.160.37.119&lt;/span&gt;&lt;br style=&quot;border-color: var(--border-color); font-family: Verdana;&quot;&gt;&lt;span style=&quot;font-family: Verdana;&quot;&gt;LAN IP 10.128.0.9&lt;/span&gt;&lt;/font&gt;" style="text;strokeColor=none;align=center;fillColor=none;html=1;verticalAlign=middle;whiteSpace=wrap;rounded=0;fontColor=#5B7FEC;" parent="1" vertex="1">
          <mxGeometry x="1740" y="-547.5" width="450" height="117.5" as="geometry" />
        </mxCell>
        <mxCell id="PKebl-i5t1zI-5H9I0Oi-19" value="&lt;font style=&quot;font-size: 30px;&quot;&gt;Client_01&lt;/font&gt;" style="text;strokeColor=none;align=center;fillColor=none;html=1;verticalAlign=middle;whiteSpace=wrap;rounded=0;fontColor=#5B7FEC;" parent="1" vertex="1">
          <mxGeometry x="350" y="-585" width="180" height="110" as="geometry" />
        </mxCell>
        <mxCell id="PKebl-i5t1zI-5H9I0Oi-20" value="" style="fontColor=#0066CC;verticalAlign=top;verticalLabelPosition=bottom;labelPosition=center;align=center;html=1;outlineConnect=0;fillColor=#CCCCCC;strokeColor=#6881B3;gradientColor=none;gradientDirection=north;strokeWidth=2;shape=mxgraph.networks.server;" parent="1" vertex="1">
          <mxGeometry x="890" y="-170" width="90" height="100" as="geometry" />
        </mxCell>
        <mxCell id="PKebl-i5t1zI-5H9I0Oi-21" value="&lt;font style=&quot;font-size: 20px;&quot;&gt;Prometheus Server&lt;br style=&quot;border-color: var(--border-color); font-family: Verdana;&quot;&gt;&lt;span style=&quot;font-family: Verdana;&quot;&gt;LAN IP 192.168.100.6&lt;br&gt;&lt;/span&gt;&lt;/font&gt;" style="text;strokeColor=none;align=center;fillColor=none;html=1;verticalAlign=middle;whiteSpace=wrap;rounded=0;fontColor=#5B7FEC;" parent="1" vertex="1">
          <mxGeometry x="730" y="-60" width="450" height="117.5" as="geometry" />
        </mxCell>
        <mxCell id="PKebl-i5t1zI-5H9I0Oi-22" value="" style="fontColor=#0066CC;verticalAlign=top;verticalLabelPosition=bottom;labelPosition=center;align=center;html=1;outlineConnect=0;fillColor=#CCCCCC;strokeColor=#6881B3;gradientColor=none;gradientDirection=north;strokeWidth=2;shape=mxgraph.networks.server;" parent="1" vertex="1">
          <mxGeometry x="1250" y="-160" width="90" height="100" as="geometry" />
        </mxCell>
        <mxCell id="PKebl-i5t1zI-5H9I0Oi-23" value="&lt;font style=&quot;font-size: 20px;&quot;&gt;Backup Server&lt;br&gt;&lt;span style=&quot;font-family: Verdana;&quot;&gt;LAN IP 192.168.100.9&lt;/span&gt;&lt;br&gt;&lt;/font&gt;" style="text;strokeColor=none;align=center;fillColor=none;html=1;verticalAlign=middle;whiteSpace=wrap;rounded=0;fontColor=#5B7FEC;" parent="1" vertex="1">
          <mxGeometry x="1070" y="-60" width="450" height="117.5" as="geometry" />
        </mxCell>
        <mxCell id="PKebl-i5t1zI-5H9I0Oi-24" value="" style="fontColor=#0066CC;verticalAlign=top;verticalLabelPosition=bottom;labelPosition=center;align=center;html=1;outlineConnect=0;fillColor=#CCCCCC;strokeColor=#6881B3;gradientColor=none;gradientDirection=north;strokeWidth=2;shape=mxgraph.networks.router;" parent="1" vertex="1">
          <mxGeometry x="1070" y="-270" width="100" height="30" as="geometry" />
        </mxCell>
        <mxCell id="PKebl-i5t1zI-5H9I0Oi-26" value="" style="endArrow=none;html=1;rounded=0;entryX=0.579;entryY=1.029;entryDx=0;entryDy=0;entryPerimeter=0;" parent="1" source="PKebl-i5t1zI-5H9I0Oi-24" target="7c3789c024ecab99-53" edge="1">
          <mxGeometry width="50" height="50" relative="1" as="geometry">
            <mxPoint x="1210" y="-240" as="sourcePoint" />
            <mxPoint x="1260" y="-290" as="targetPoint" />
          </mxGeometry>
        </mxCell>
        <mxCell id="PKebl-i5t1zI-5H9I0Oi-28" value="" style="endArrow=none;html=1;rounded=0;entryX=0.5;entryY=0;entryDx=0;entryDy=0;entryPerimeter=0;exitX=0.5;exitY=1;exitDx=0;exitDy=0;exitPerimeter=0;" parent="1" source="PKebl-i5t1zI-5H9I0Oi-24" target="PKebl-i5t1zI-5H9I0Oi-20" edge="1">
          <mxGeometry width="50" height="50" relative="1" as="geometry">
            <mxPoint x="1063.85" y="-230" as="sourcePoint" />
            <mxPoint x="986.1500000000002" y="-192.3824999999997" as="targetPoint" />
          </mxGeometry>
        </mxCell>
        <mxCell id="PKebl-i5t1zI-5H9I0Oi-29" value="" style="endArrow=none;html=1;rounded=0;entryX=0.5;entryY=1;entryDx=0;entryDy=0;entryPerimeter=0;exitX=0.5;exitY=0;exitDx=0;exitDy=0;exitPerimeter=0;" parent="1" source="PKebl-i5t1zI-5H9I0Oi-22" target="PKebl-i5t1zI-5H9I0Oi-24" edge="1">
          <mxGeometry width="50" height="50" relative="1" as="geometry">
            <mxPoint x="1160" y="-160" as="sourcePoint" />
            <mxPoint x="1210" y="-210" as="targetPoint" />
          </mxGeometry>
        </mxCell>
        <mxCell id="PKebl-i5t1zI-5H9I0Oi-30" value="" style="fontColor=#0066CC;verticalAlign=top;verticalLabelPosition=bottom;labelPosition=center;align=center;html=1;fillColor=#CCCCCC;strokeColor=#6881B3;gradientColor=none;gradientDirection=north;strokeWidth=2;shape=mxgraph.networks.pc;rounded=0;shadow=0;comic=0;" parent="1" vertex="1">
          <mxGeometry x="370" y="-220" width="160" height="135" as="geometry" />
        </mxCell>
        <mxCell id="PKebl-i5t1zI-5H9I0Oi-31" value="&lt;font style=&quot;font-size: 30px;&quot;&gt;Client_02&lt;/font&gt;" style="text;strokeColor=none;align=center;fillColor=none;html=1;verticalAlign=middle;whiteSpace=wrap;rounded=0;fontColor=#5B7FEC;" parent="1" vertex="1">
          <mxGeometry x="360" y="-330" width="180" height="110" as="geometry" />
        </mxCell>
        <mxCell id="PKebl-i5t1zI-5H9I0Oi-32" value="" style="endArrow=none;dashed=1;html=1;rounded=0;entryX=0.023;entryY=0.951;entryDx=0;entryDy=0;entryPerimeter=0;exitX=1.002;exitY=0.41;exitDx=0;exitDy=0;exitPerimeter=0;" parent="1" source="PKebl-i5t1zI-5H9I0Oi-30" target="7c3789c024ecab99-53" edge="1">
          <mxGeometry width="50" height="50" relative="1" as="geometry">
            <mxPoint x="530" y="-215" as="sourcePoint" />
            <mxPoint x="870" y="-210" as="targetPoint" />
          </mxGeometry>
        </mxCell>
        <mxCell id="PKebl-i5t1zI-5H9I0Oi-33" value="&lt;font style=&quot;font-size: 30px;&quot;&gt;Secure VPN tunnel&lt;/font&gt;" style="text;strokeColor=none;align=center;fillColor=none;html=1;verticalAlign=middle;whiteSpace=wrap;rounded=0;fontColor=#5B7FEC;" parent="1" vertex="1">
          <mxGeometry x="730" y="-430" width="180" height="110" as="geometry" />
        </mxCell>
        <mxCell id="PKebl-i5t1zI-5H9I0Oi-34" value="&lt;font style=&quot;font-size: 30px;&quot;&gt;Secure VPN tunnel&lt;/font&gt;" style="text;strokeColor=none;align=center;fillColor=none;html=1;verticalAlign=middle;whiteSpace=wrap;rounded=0;fontColor=#5B7FEC;" parent="1" vertex="1">
          <mxGeometry x="1100" y="-500" width="180" height="110" as="geometry" />
        </mxCell>
      </root>
    </mxGraphModel>
  </diagram>
</mxfile>
